<svg width="120" height="85" viewBox="0 0 120 85" fill="none" xmlns="http://www.w3.org/2000/svg">
<path d="M77.3505 2C75 4.5 72.3938 13.1078 72.3938 16.2505C72.3938 19.2506 72.659 22.4111 73.3331 25.4832M73.3331 25.4832C74.1734 29.3127 75.6492 33.0048 78.0389 36.0773L78.1027 36.1593C83.9502 43.6777 87.0561 47.671 97.1773 50.0525C105.521 52.0158 113.788 49.1841 116.729 40.6898C122.91 22.8322 110 13.8141 90.3618 18.1781C84.7019 19.4359 78.6618 21.9374 73.3331 25.4832ZM73.3331 25.4832C66.8764 29.7797 61.4641 35.6094 59.0383 42.6174C58.4596 44.2892 57.8608 46.0871 57.3458 47.9474M57.3458 47.9474C56.1743 52.1789 54.8591 56.5 56.3534 60.8608C58.5 67.1255 65.5 73.5 69.9155 67.1255C75.0249 58.184 66.8157 49.8938 57.3458 47.9474ZM57.3458 47.9474C54.4238 47.3469 46.3078 49.2254 43.5 50C28.5487 54.1245 22.4311 57.7295 14.7722 68.2959C11 73.5 8.62109 78.7152 4.51454 82.8218C3.40389 83.9324 5 79.8218 4.51454 75C4.06147 70.5 2 68.2959 2 68.2959M4.13048 83.2126C7.74311 82.8112 10.5 79.5 19 81.5" stroke="#D74B4B" stroke-width="3" stroke-linecap="round"/>
</svg>
