<svg width="110" height="113" viewBox="0 0 110 113" fill="none" xmlns="http://www.w3.org/2000/svg">
<path d="M74.5 2C72 4.5 69 9 69 9C69 9 65.4948 15.5055 64.5 18.5C63.5052 21.4945 61.5074 26.9649 62.9997 36.4474C63.7065 40.9391 64.4367 43.3259 65.9842 46.8195C69.0793 53.8065 80.4094 61.9003 90.3578 61.9003C100.306 61.9003 108.31 55.4711 107.991 46.8195C107.376 30.1684 89.363 19.4788 70.3632 29.3021C63.6289 31.7591 54.9013 40.1122 50.5642 45.4308C45.0677 52.171 39.6209 64.0525 39.6209 72.88C39.6209 80.146 43.6003 87.3533 56.5332 87.3533C70.9584 85.856 71.6117 70.623 66.979 65.3939C60.0152 56.4105 47.0822 56.9096 35.1441 61.9003C23.6652 66.6992 14.8494 80.8653 12.7602 85.357C10.6711 89.8487 8.37554 96.8819 6.54692 102.845C5.75429 105.429 3.00993 112.704 3.00993 110C3.00993 106.854 3.19008 104.407 3.00993 101.335C2.89359 99.3503 1.29447 95.4581 2.37027 100.315C2.98781 103.103 3.19931 107.007 3 109C2.5 114 6.43875 108.384 7.5 107.5C10.5 105 14 104 15.7448 103.823" stroke="#D74B4B" stroke-width="3" stroke-linecap="round"/>
</svg>
